# xmcd CD database file
# Copyright (C) 1993-1998 Ti Kan
#
# Track frame offsets:
# 212
# 8875
# 19455
# 32925
# 45437
# 56430
# 67705
# 78367
# 87897
# 100590
# 112372
# 125920
# 138562
# 151770
# 161200
# 174627
# 187752
# 197275
# 210062
# 223920
# 243642
# 257935
# 276352
#
# Disc length: 4078 seconds
#
# Revision: 0
# Processed by: cddbd v1.4b41PL1 Copyright (c) Steve Scherf et al.
# Submitted via: inCDius 1.1b8
#
DISCID=430fec17
DTITLE=Don Covay - Mercy Mercy -The Definitive Don Covay 
DYEAR=1900
DGENRE=
TTITLE0=Bip Bop Bip
TTITLE1=Pony Time
TTITLE2=See About Me
TTITLE3=(Where Are You) Now That I Need You
TTITLE4=Mercy Mercy
TTITLE5=Take This Hurt Off Me
TTITLE6=Daddy Loves Baby
TTITLE7=The Usual Place
TTITLE8=Please Do Something
TTITLE9=A Woman's Love
TTITLE10=See Saw
TTITLE11=Sookie Sookie
TTITLE12=Iron Out The Rough Spots
TTITLE13=Watching The Late, Late Show
TTITLE14=Temptation Was Too Strong
TTITLE15=It's In The Wind
TTITLE16=You've Got Me On The Critical List
TTITLE17=I Stole Some Love
TTITLE18=Overtime Man
TTITLE19=I Was Checkin' Out While She Was Checkin' In
TTITLE20=It's Better To Have  (And Don't Need)
TTITLE21=We Can't Make It No More
TTITLE22=No Tell Motel
EXTD=
EXTT0=
EXTT1=
EXTT2=
EXTT3=
EXTT4=
EXTT5=
EXTT6=
EXTT7=
EXTT8=
EXTT9=
EXTT10=
EXTT11=
EXTT12=
EXTT13=
EXTT14=
EXTT15=
EXTT16=
EXTT17=
EXTT18=
EXTT19=
EXTT20=
EXTT21=
EXTT22=
PLAYORDER=
